name C:/MyDriveSym/Projects/mobilecap/Data\Session20210813_0001\mocap\ForceDataProcessed\DJ3_forces.mot
datacolumns 28
datarows 20
range 1.28450000 1.29400000
endheader 
time	R_ground_force_vx	R_ground_force_vy	R_ground_force_vz	R_ground_force_px	R_ground_force_py	R_ground_force_pz	R_ground_torque_x	R_ground_torque_y	R_ground_torque_z	L_ground_force_vx	L_ground_force_vy	L_ground_force_vz	L_ground_force_px	L_ground_force_py	L_ground_force_pz	L_ground_torque_x	L_ground_torque_y	L_ground_torque_z	3_ground_force_vx	3_ground_force_vy	3_ground_force_vz	3_ground_force_px	3_ground_force_py	3_ground_force_pz	3_ground_torque_x	3_ground_torque_y	3_ground_torque_z	
          1.28450000	          0.00000000	          0.00000000	          0.00000000	          0.00000000	          0.00000000	          0.00000000	          0.00000000	          0.00000000	          0.00000000	       -304.35537000	        413.89801700	         34.00269800	         -0.12537500	          0.00600000	         -0.83787200	          0.00000000	         -0.14834300	          0.00000000	          0.00000000	          0.00000000	          0.00000000	          0.00000000	          0.00000000	          0.00000000	          0.00000000	          0.00000000	          0.00000000	
          1.28500000	          0.00000000	          0.00000000	          0.00000000	          0.00000000	          0.00000000	          0.00000000	          0.00000000	          0.00000000	          0.00000000	       -322.74328300	        440.35750900	         37.82370800	         -0.12576100	          0.00600000	         -0.83790100	          0.00000000	         -0.09871400	          0.00000000	          0.00000000	          0.00000000	          0.00000000	          0.00000000	          0.00000000	          0.00000000	          0.00000000	          0.00000000	          0.00000000	
          1.28550000	          0.00000000	          0.00000000	          0.00000000	          0.00000000	          0.00000000	          0.00000000	          0.00000000	          0.00000000	          0.00000000	       -341.03752600	        466.76357100	         41.79825500	         -0.12611900	          0.00600000	         -0.83792600	          0.00000000	         -0.04280900	          0.00000000	          0.00000000	          0.00000000	          0.00000000	          0.00000000	          0.00000000	          0.00000000	          0.00000000	          0.00000000	          0.00000000	
          1.28600000	          0.00000000	          0.00000000	          0.00000000	          0.00000000	          0.00000000	          0.00000000	          0.00000000	          0.00000000	          0.00000000	       -359.13474100	        492.94659600	         45.90515600	         -0.12645000	          0.00600000	         -0.83794700	          0.00000000	          0.01903000	          0.00000000	          0.00000000	          0.00000000	          0.00000000	          0.00000000	          0.00000000	          0.00000000	          0.00000000	          0.00000000	          0.00000000	
          1.28650000	          0.00000000	          0.00000000	          0.00000000	          0.00000000	          0.00000000	          0.00000000	          0.00000000	          0.00000000	          0.00000000	       -376.92150000	        518.72594600	         50.11881200	         -0.12675100	          0.00600000	         -0.83796400	          0.00000000	          0.08652700	          0.00000000	          0.00000000	          0.00000000	          0.00000000	          0.00000000	          0.00000000	          0.00000000	          0.00000000	          0.00000000	          0.00000000	
          1.28700000	          0.00000000	          0.00000000	          0.00000000	          0.00000000	          0.00000000	          0.00000000	          0.00000000	          0.00000000	          0.00000000	       -394.27343900	        543.91111000	         54.40867400	         -0.12702200	          0.00600000	         -0.83797900	          0.00000000	          0.15959500	          0.00000000	          0.00000000	          0.00000000	          0.00000000	          0.00000000	          0.00000000	          0.00000000	          0.00000000	          0.00000000	          0.00000000	
          1.28750000	          0.00000000	          0.00000000	          0.00000000	          0.00000000	          0.00000000	          0.00000000	          0.00000000	          0.00000000	          0.00000000	       -411.05644500	        568.30350400	         58.73884400	         -0.12726300	          0.00600000	         -0.83799100	          0.00000000	          0.23834400	          0.00000000	          0.00000000	          0.00000000	          0.00000000	          0.00000000	          0.00000000	          0.00000000	          0.00000000	          0.00000000	          0.00000000	
          1.28800000	          0.00000000	          0.00000000	          0.00000000	          0.00000000	          0.00000000	          0.00000000	          0.00000000	          0.00000000	          0.00000000	       -427.12951200	        591.69810500	         63.06817000	         -0.12747300	          0.00600000	         -0.83800200	          0.00000000	          0.32298600	          0.00000000	          0.00000000	          0.00000000	          0.00000000	          0.00000000	          0.00000000	          0.00000000	          0.00000000	          0.00000000	          0.00000000	
          1.28850000	          0.00000000	          0.00000000	          0.00000000	          0.00000000	          0.00000000	          0.00000000	          0.00000000	          0.00000000	          0.00000000	       -442.34861500	        613.88503600	         67.35100600	         -0.12765400	          0.00600000	         -0.83801200	          0.00000000	          0.41368100	          0.00000000	          0.00000000	          0.00000000	          0.00000000	          0.00000000	          0.00000000	          0.00000000	          0.00000000	          0.00000000	          0.00000000	
          1.28900000	          0.00000000	          0.00000000	          0.00000000	          0.00000000	          0.00000000	          0.00000000	          0.00000000	          0.00000000	          0.00000000	       -456.57067300	        634.65224800	         71.53873300	         -0.12780500	          0.00600000	         -0.83802200	          0.00000000	          0.51035000	          0.00000000	          0.00000000	          0.00000000	          0.00000000	          0.00000000	          0.00000000	          0.00000000	          0.00000000	          0.00000000	          0.00000000	
          1.28950000	        -10.00155000	         25.80998200	          4.16294000	         -0.13083500	          0.00600000	         -0.28352700	          0.00000000	          0.31503400	          0.00000000	       -469.65708900	        653.78975100	         75.58171400	         -0.12792800	          0.00600000	         -0.83803100	          0.00000000	          0.61249800	          0.00000000	          0.00000000	          0.00000000	          0.00000000	          0.00000000	          0.00000000	          0.00000000	          0.00000000	          0.00000000	          0.00000000	
          1.29000000	        -14.84285600	         34.08832800	          4.04998600	         -0.13084600	          0.00600000	         -0.28426000	          0.00000000	          0.32617600	          0.00000000	       -481.47678800	        671.09525700	         79.43102200	         -0.12802000	          0.00600000	         -0.83804000	          0.00000000	          0.71910600	          0.00000000	          0.00000000	          0.00000000	          0.00000000	          0.00000000	          0.00000000	          0.00000000	          0.00000000	          0.00000000	          0.00000000	
          1.29050000	        -20.23179200	         43.20699600	          3.88158800	         -0.13083200	          0.00600000	         -0.28474100	          0.00000000	          0.33902700	          0.00000000	       -491.90868300	        686.38097600	         83.03961500	         -0.12808100	          0.00600000	         -0.83804900	          0.00000000	          0.82863000	          0.00000000	          0.00000000	          0.00000000	          0.00000000	          0.00000000	          0.00000000	          0.00000000	          0.00000000	          0.00000000	          0.00000000	
          1.29100000	        -26.19504700	         53.19956100	          3.65159800	         -0.13080500	          0.00600000	         -0.28507700	          0.00000000	          0.35309000	          0.00000000	       -500.84353300	        699.48114600	         86.36305600	         -0.12810700	          0.00600000	         -0.83805600	          0.00000000	          0.93915100	          0.00000000	          0.00000000	          0.00000000	          0.00000000	          0.00000000	          0.00000000	          0.00000000	          0.00000000	          0.00000000	          0.00000000	
          1.29150000	        -32.75767700	         64.09596900	          3.35350400	         -0.13077000	          0.00600000	         -0.28532400	          0.00000000	          0.36808300	          0.00000000	       -508.18547800	        710.25978900	         89.35993000	         -0.12809500	          0.00600000	         -0.83805900	          0.00000000	          1.04865700	          0.00000000	          0.00000000	          0.00000000	          0.00000000	          0.00000000	          0.00000000	          0.00000000	          0.00000000	          0.00000000	          0.00000000	
          1.29200000	        -39.94266300	         75.92168500	          2.98042500	         -0.13073200	          0.00600000	         -0.28551100	          0.00000000	          0.38380500	          0.00000000	       -513.85386100	        718.61803200	         91.99215700	         -0.12804200	          0.00600000	         -0.83805900	          0.00000000	          1.15533200	          0.00000000	          0.00000000	          0.00000000	          0.00000000	          0.00000000	          0.00000000	          0.00000000	          0.00000000	          0.00000000	          0.00000000	
          1.29250000	        -47.77040600	         88.69673800	          2.52512100	         -0.13069000	          0.00600000	         -0.28565600	          0.00000000	          0.40008600	          0.00000000	       -517.78565200	        724.50031300	         94.22516200	         -0.12794700	          0.00600000	         -0.83805300	          0.00000000	          1.25776900	          0.00000000	          0.00000000	          0.00000000	          0.00000000	          0.00000000	          0.00000000	          0.00000000	          0.00000000	          0.00000000	          0.00000000	
          1.29300000	        -56.25816100	        102.43469700	          1.98002500	         -0.13064600	          0.00600000	         -0.28577200	          0.00000000	          0.41675900	          0.00000000	       -519.93847400	        727.89873600	         96.02758500	         -0.12780800	          0.00600000	         -0.83803900	          0.00000000	          1.35507900	          0.00000000	          0.00000000	          0.00000000	          0.00000000	          0.00000000	          0.00000000	          0.00000000	          0.00000000	          0.00000000	          0.00000000	
          1.29350000	        -65.41940700	        117.14159500	          1.33725600	         -0.13060000	          0.00600000	         -0.28586400	          0.00000000	          0.43364900	          0.00000000	       -520.29379900	        728.85474200	         97.37078400	         -0.12762700	          0.00600000	         -0.83801500	          0.00000000	          1.44687000	          0.00000000	          0.00000000	          0.00000000	          0.00000000	          0.00000000	          0.00000000	          0.00000000	          0.00000000	          0.00000000	          0.00000000	
          1.29400000	        -75.26314700	        132.81485100	          0.58864700	         -0.13055200	          0.00600000	         -0.28593900	          0.00000000	          0.45056400	          0.00000000	       -518.85949900	        727.45713700	         98.22891700	         -0.12740500	          0.00600000	         -0.83798100	          0.00000000	          1.53312500	          0.00000000	          0.00000000	          0.00000000	          0.00000000	          0.00000000	          0.00000000	          0.00000000	          0.00000000	          0.00000000	          0.00000000	
